<?xml version="1.0" standalone="no"?><!-- Generator: Gravit.io --><svg xmlns="http://www.w3.org/2000/svg" xmlns:xlink="http://www.w3.org/1999/xlink" style="isolation:isolate" viewBox="0 0 100 100" width="100" height="100"><defs><clipPath id="_clipPath_hBgan30HUL9EuQ9yygNYHjD31oN4KwEQ"><rect width="100" height="100"/></clipPath></defs><g clip-path="url(#_clipPath_hBgan30HUL9EuQ9yygNYHjD31oN4KwEQ)"><path d=" M 89.655 0 L 89.655 6.667 L 82.759 6.667 L 82.759 46.667 L 89.655 46.667 L 89.655 53.333 L 93.103 53.333 L 93.103 46.667 L 100 46.667 L 100 6.667 L 93.103 6.667 L 93.103 0 L 89.655 0 Z  M 87.931 10 L 94.828 10 C 94.828 10.917 95.603 11.667 96.552 11.667 L 96.552 18.333 C 95.603 18.333 94.828 19.083 94.828 20 C 94.828 20.917 95.603 21.667 96.552 21.667 L 96.552 28.333 C 95.603 28.333 94.828 29.083 94.828 30 C 94.828 30.917 95.603 31.667 96.552 31.667 L 96.552 38.333 C 95.603 38.333 94.828 39.083 94.828 40 C 94.828 40.917 95.603 41.667 96.552 41.667 L 96.552 43.333 L 86.207 43.333 L 86.207 41.667 C 87.155 41.667 87.931 40.917 87.931 40 C 87.931 39.083 87.155 38.333 86.207 38.333 L 86.207 31.667 C 87.155 31.667 87.931 30.917 87.931 30 C 87.931 29.083 87.155 28.333 86.207 28.333 L 86.207 21.667 C 87.155 21.667 87.931 20.917 87.931 20 C 87.931 19.083 87.155 18.333 86.207 18.333 L 86.207 11.667 C 87.155 11.667 87.931 10.917 87.931 10 Z  M 91.379 13.333 C 90.431 13.333 89.655 14.083 89.655 15 C 89.655 15.917 90.431 16.667 91.379 16.667 C 92.328 16.667 93.103 15.917 93.103 15 C 93.103 14.083 92.328 13.333 91.379 13.333 Z  M 32.759 20 L 32.759 26.667 L 25.862 26.667 L 25.862 66.667 L 32.759 66.667 L 32.759 73.333 L 36.207 73.333 L 36.207 66.667 L 43.103 66.667 L 43.103 26.667 L 36.207 26.667 L 36.207 20 L 32.759 20 Z  M 63.793 21.667 L 63.793 28.333 L 56.897 28.333 L 56.897 68.333 L 63.793 68.333 L 63.793 75 L 67.241 75 L 67.241 68.333 L 74.138 68.333 L 74.138 28.333 L 67.241 28.333 L 67.241 21.667 L 63.793 21.667 Z  M 91.379 23.333 C 90.431 23.333 89.655 24.083 89.655 25 C 89.655 25.917 90.431 26.667 91.379 26.667 C 92.328 26.667 93.103 25.917 93.103 25 C 93.103 24.083 92.328 23.333 91.379 23.333 Z  M 31.034 30 L 37.931 30 C 37.931 30.917 38.707 31.667 39.655 31.667 L 39.655 38.333 C 38.707 38.333 37.931 39.083 37.931 40 C 37.931 40.917 38.707 41.667 39.655 41.667 L 39.655 48.333 C 38.707 48.333 37.931 49.083 37.931 50 C 37.931 50.917 38.707 51.667 39.655 51.667 L 39.655 58.333 C 38.707 58.333 37.931 59.083 37.931 60 C 37.931 60.917 38.707 61.667 39.655 61.667 L 39.655 63.333 L 29.31 63.333 L 29.31 61.667 C 30.259 61.667 31.034 60.917 31.034 60 C 31.034 59.083 30.259 58.333 29.31 58.333 L 29.31 51.667 C 30.259 51.667 31.034 50.917 31.034 50 C 31.034 49.083 30.259 48.333 29.31 48.333 L 29.31 41.667 C 30.259 41.667 31.034 40.917 31.034 40 C 31.034 39.083 30.259 38.333 29.31 38.333 L 29.31 31.667 C 30.259 31.667 31.034 30.917 31.034 30 Z  M 60.345 31.667 L 70.69 31.667 L 70.69 33.333 C 69.741 33.333 68.966 34.083 68.966 35 C 68.966 35.917 69.741 36.667 70.69 36.667 L 70.69 43.333 C 69.741 43.333 68.966 44.083 68.966 45 C 68.966 45.917 69.741 46.667 70.69 46.667 L 70.69 53.333 C 69.741 53.333 68.966 54.083 68.966 55 C 68.966 55.917 69.741 56.667 70.69 56.667 L 70.69 63.333 C 69.741 63.333 68.966 64.083 68.966 65 L 62.069 65 C 62.069 64.083 61.293 63.333 60.345 63.333 L 60.345 56.667 C 61.293 56.667 62.069 55.917 62.069 55 C 62.069 54.083 61.293 53.333 60.345 53.333 L 60.345 46.667 C 61.293 46.667 62.069 45.917 62.069 45 C 62.069 44.083 61.293 43.333 60.345 43.333 L 60.345 36.667 C 61.293 36.667 62.069 35.917 62.069 35 C 62.069 34.083 61.293 33.333 60.345 33.333 L 60.345 31.667 Z  M 34.483 33.333 C 33.534 33.333 32.759 34.083 32.759 35 C 32.759 35.917 33.534 36.667 34.483 36.667 C 35.431 36.667 36.207 35.917 36.207 35 C 36.207 34.083 35.431 33.333 34.483 33.333 Z  M 91.379 33.333 C 90.431 33.333 89.655 34.083 89.655 35 C 89.655 35.917 90.431 36.667 91.379 36.667 C 92.328 36.667 93.103 35.917 93.103 35 C 93.103 34.083 92.328 33.333 91.379 33.333 Z  M 65.517 38.333 C 64.569 38.333 63.793 39.083 63.793 40 C 63.793 40.917 64.569 41.667 65.517 41.667 C 66.466 41.667 67.241 40.917 67.241 40 C 67.241 39.083 66.466 38.333 65.517 38.333 Z  M 34.483 43.333 C 33.534 43.333 32.759 44.083 32.759 45 C 32.759 45.917 33.534 46.667 34.483 46.667 C 35.431 46.667 36.207 45.917 36.207 45 C 36.207 44.083 35.431 43.333 34.483 43.333 Z  M 6.897 46.667 L 6.897 53.333 L 0 53.333 L 0 93.333 L 6.897 93.333 L 6.897 100 L 10.345 100 L 10.345 93.333 L 17.241 93.333 L 17.241 53.333 L 10.345 53.333 L 10.345 46.667 L 6.897 46.667 Z  M 65.517 48.333 C 64.569 48.333 63.793 49.083 63.793 50 C 63.793 50.917 64.569 51.667 65.517 51.667 C 66.466 51.667 67.241 50.917 67.241 50 C 67.241 49.083 66.466 48.333 65.517 48.333 Z  M 34.483 53.333 C 33.534 53.333 32.759 54.083 32.759 55 C 32.759 55.917 33.534 56.667 34.483 56.667 C 35.431 56.667 36.207 55.917 36.207 55 C 36.207 54.083 35.431 53.333 34.483 53.333 Z  M 3.448 56.667 L 13.793 56.667 L 13.793 90 L 3.448 90 L 3.448 56.667 Z  M 65.517 58.333 C 64.569 58.333 63.793 59.083 63.793 60 C 63.793 60.917 64.569 61.667 65.517 61.667 C 66.466 61.667 67.241 60.917 67.241 60 C 67.241 59.083 66.466 58.333 65.517 58.333 Z " fill="rgb(0,0,0)"/></g></svg>