<?xml version="1.0" standalone="no"?><!-- Generator: Gravit.io --><svg xmlns="http://www.w3.org/2000/svg" xmlns:xlink="http://www.w3.org/1999/xlink" style="isolation:isolate" viewBox="0 0 100 100" width="100" height="100"><defs><clipPath id="_clipPath_Yvgy3OiFf7NpcpIgU1yRbwRNtgFoM0vw"><rect width="100" height="100"/></clipPath></defs><g clip-path="url(#_clipPath_Yvgy3OiFf7NpcpIgU1yRbwRNtgFoM0vw)"><path d=" M 40.452 0 C 36.525 0 33.291 2.946 33.291 6.522 L 33.291 10.87 L 14.566 10.87 C 14.428 10.852 14.297 10.835 14.156 10.835 C 14.046 10.843 13.924 10.852 13.812 10.87 L 9.42 10.87 C 8.559 10.86 7.758 11.272 7.322 11.948 C 6.893 12.626 6.893 13.461 7.322 14.139 C 7.761 14.817 8.563 15.226 9.42 15.217 L 11.807 15.217 L 11.807 93.478 C 11.807 97.054 15.041 100 18.968 100 L 81.032 100 C 84.959 100 88.193 97.054 88.193 93.478 L 88.193 15.217 L 90.58 15.217 C 91.439 15.226 92.239 14.817 92.678 14.139 C 93.107 13.461 93.107 12.626 92.678 11.948 C 92.239 11.27 91.437 10.861 90.58 10.87 L 86.207 10.87 C 85.951 10.827 85.689 10.827 85.434 10.87 L 66.709 10.87 L 66.709 6.522 C 66.709 2.946 63.475 0 59.548 0 L 40.452 0 Z  M 40.452 4.348 L 59.548 4.348 C 60.873 4.348 61.935 5.315 61.935 6.522 L 61.935 10.87 L 38.065 10.87 L 38.065 6.522 C 38.065 5.315 39.127 4.348 40.452 4.348 Z  M 16.581 15.217 L 35.277 15.217 C 35.539 15.261 35.799 15.261 36.05 15.217 L 63.921 15.217 C 64.184 15.261 64.444 15.261 64.695 15.217 L 83.419 15.217 L 83.419 93.478 C 83.419 94.685 82.357 95.652 81.032 95.652 L 18.968 95.652 C 17.643 95.652 16.581 94.685 16.581 93.478 L 16.581 15.217 Z  M 33.262 39.104 C 32.289 39.104 31.414 39.642 31.049 40.463 C 30.684 41.285 30.903 42.226 31.603 42.841 L 46.625 56.522 L 31.603 70.202 C 30.978 70.746 30.728 71.557 30.951 72.317 C 31.165 73.08 31.819 73.675 32.656 73.87 C 33.491 74.073 34.381 73.845 34.978 73.276 L 50 59.596 L 65.022 73.276 C 65.619 73.846 66.514 74.074 67.344 73.87 C 68.181 73.675 68.835 73.08 69.049 72.317 C 69.272 71.557 69.022 70.746 68.397 70.202 L 53.375 56.522 L 68.397 42.841 C 69.102 42.218 69.314 41.263 68.929 40.439 C 68.623 39.764 67.963 39.276 67.175 39.14 C 66.387 39.005 65.577 39.241 65.022 39.767 L 50 53.448 L 34.978 39.767 C 34.527 39.345 33.909 39.106 33.262 39.104 Z " fill="rgb(0,0,0)"/></g></svg>