<?xml version="1.0" standalone="no"?><!-- Generator: Gravit.io --><svg xmlns="http://www.w3.org/2000/svg" xmlns:xlink="http://www.w3.org/1999/xlink" style="isolation:isolate" viewBox="0 0 100 100" width="100" height="100"><defs><clipPath id="_clipPath_T33PhJvfWEWnbcK1dgXAw8s12dbnE0Hw"><rect width="100" height="100"/></clipPath></defs><g clip-path="url(#_clipPath_T33PhJvfWEWnbcK1dgXAw8s12dbnE0Hw)"><g><rect x="0" y="0" width="100" height="100" transform="matrix(1,0,0,1,0,0)" fill="none"/><path d=" M 54.167 45.833 L 54.167 78.75 L 45.833 84.167 L 45.833 45.833 L 54.167 45.833 Z  M 62.5 37.5 L 37.5 37.5 L 37.5 100 L 62.5 83.333 L 62.5 37.5 Z " fill="rgb(0,0,0)"/><path d=" M 88.333 8.333 L 59.167 37.5 L 40.833 37.5 L 11.667 8.333 L 88.333 8.333 Z  M 100 0 L 0 0 L 0 8.333 L 37.5 45.833 L 62.5 45.833 L 100 8.333 L 100 0 Z " fill="rgb(0,0,0)"/></g><path d=" M 16 42 L 16 51 L 7 51 L 7 53 L 16 53 L 16 62 L 18 62 L 18 53 L 27 53 L 27 51 L 18 51 L 18 42 L 16 42 Z " fill-rule="evenodd" fill="rgb(0,0,0)" vector-effect="non-scaling-stroke" stroke-width="4" stroke="rgb(0,0,0)" stroke-linejoin="miter" stroke-linecap="butt" stroke-miterlimit="4"/><path d=" M 10 84 L 10 86 L 24 86 L 24 84 L 10 84 Z " fill="rgb(0,0,0)" vector-effect="non-scaling-stroke" stroke-width="4" stroke="rgb(0,0,0)" stroke-linejoin="miter" stroke-linecap="butt" stroke-miterlimit="4"/></g></svg>