<?xml version="1.0" standalone="no"?><!-- Generator: Gravit.io --><svg xmlns="http://www.w3.org/2000/svg" xmlns:xlink="http://www.w3.org/1999/xlink" style="isolation:isolate" viewBox="0 0 100 100" width="100" height="100"><defs><clipPath id="_clipPath_SAaI2sx0tDxVMdjczKxiAp7JMZk4Xhlq"><rect width="100" height="100"/></clipPath></defs><g clip-path="url(#_clipPath_SAaI2sx0tDxVMdjczKxiAp7JMZk4Xhlq)"><path d=" M 76.472 19.565 L 57.583 19.565 L 57.583 36.957 L 76.472 36.957 L 76.472 19.565 Z  M 8 0 L 8 100 L 93 100 L 93 0 L 8 0 Z  M 19.806 15.217 L 48.139 15.217 L 48.139 41.304 L 19.806 41.304 L 19.806 15.217 Z  M 81.194 89.13 L 19.806 89.13 L 19.806 45.652 L 81.194 45.652 L 81.194 89.13 Z  M 81.194 41.304 L 52.861 41.304 L 52.861 15.217 L 81.194 15.217 L 81.194 41.304 Z  M 76.472 50 L 24.528 50 L 24.528 84.783 L 76.472 84.783 L 76.472 50 Z  M 24.528 36.957 L 43.417 36.957 L 43.417 19.565 L 24.528 19.565 L 24.528 36.957 Z " fill="rgb(0,0,0)"/><path d=" M 62.719 73.455 L 55.969 73.455 L 55.969 54 L 45.032 54 L 45.032 73.455 L 38.281 73.455 L 50.501 96 L 62.719 73.455 Z " fill="rgb(255,255,255)" vector-effect="non-scaling-stroke" stroke-width="2" stroke="rgb(0,0,0)" stroke-linejoin="miter" stroke-linecap="butt" stroke-miterlimit="4"/></g></svg>