<?xml version="1.0" standalone="no"?><!-- Generator: Gravit.io --><svg xmlns="http://www.w3.org/2000/svg" xmlns:xlink="http://www.w3.org/1999/xlink" style="isolation:isolate" viewBox="0 0 100 100" width="100" height="100"><defs><clipPath id="_clipPath_aFqRjXJpUi2SNxWlVrnxj4biqVnkS9FR"><rect width="100" height="100"/></clipPath></defs><g clip-path="url(#_clipPath_aFqRjXJpUi2SNxWlVrnxj4biqVnkS9FR)"><g><path d=" M 83.931 17.26 C 85.423 17.246 86.859 17.866 87.925 18.984 C 88.444 19.522 88.847 20.143 89.142 20.851 C 89.439 21.558 89.586 22.325 89.586 23.151 L 89.586 99.74 L 20.533 99.74 L 10.414 89.153 L 10.414 23.151 C 10.414 22.325 10.558 21.558 10.858 20.851 C 11.781 18.659 13.823 17.252 16.069 17.26 L 83.928 17.26 L 83.931 17.26 Z  M 83.931 23.151 L 78.275 23.151 L 78.275 58.5 L 21.728 58.5 L 21.728 23.151 L 16.072 23.151 L 16.072 86.718 L 22.878 93.849 L 27.381 93.849 L 27.381 70.282 L 66.964 70.282 L 66.964 93.849 L 83.931 93.849 L 83.931 23.151 L 83.931 23.151 Z  M 27.381 52.606 L 72.619 52.606 L 72.619 23.151 L 27.381 23.151 L 27.381 52.606 Z  M 61.311 76.176 L 33.033 76.176 L 33.033 93.849 L 38.689 93.849 L 38.689 82.064 L 44.344 82.064 L 44.344 93.849 L 61.308 93.849 L 61.308 76.173 L 61.311 76.176 Z " fill-rule="evenodd" fill="rgb(35,31,32)"/><rect x="0" y="5" width="100" height="107" transform="matrix(1,0,0,1,0,0)" fill="none"/></g><g><path d=" M 44.094 29.605 L 44.094 0.658 L 55.906 0.658 L 55.906 29.605 L 69.416 29.605 L 50 49.07 L 30.584 29.605 L 44.094 29.605 Z " fill="rgb(223,240,254)"/><path d=" M 67.832 30.263 L 50 48.139 L 32.168 30.263 L 44.75 30.263 L 44.75 1.316 L 55.25 1.316 L 55.25 30.263 L 67.832 30.263 Z  M 71 28.947 L 56.563 28.947 L 56.563 0 L 43.438 0 L 43.438 28.947 L 29 28.947 L 50 50 L 71 28.947 Z " fill="rgb(71,136,199)"/></g></g></svg>